<?xml version="1.0" standalone="no"?><!DOCTYPE svg PUBLIC "-//W3C//DTD SVG 1.1//EN" "http://www.w3.org/Graphics/SVG/1.1/DTD/svg11.dtd"><svg t="1594448442280" class="icon" viewBox="0 0 1024 1024" version="1.1" xmlns="http://www.w3.org/2000/svg" p-id="2207" xmlns:xlink="http://www.w3.org/1999/xlink" width="200" height="200"><defs><style type="text/css"></style></defs><path d="M760.685714 73.142857H263.314286C160.914286 73.142857 73.142857 160.914286 73.142857 263.314286v497.371428C73.142857 863.085714 160.914286 950.857143 263.314286 950.857143h497.371428c102.4 0 190.171429-87.771429 190.171429-190.171429V263.314286C950.857143 160.914286 863.085714 73.142857 760.685714 73.142857z m117.028572 687.542857c0 65.828571-51.2 117.028571-117.028572 117.028572H263.314286c-65.828571 0-117.028571-51.2-117.028572-117.028572V263.314286C146.285714 197.485714 197.485714 146.285714 263.314286 146.285714h497.371428c65.828571 0 117.028571 51.2 117.028572 117.028572v497.371428z" p-id="2208"></path><path d="M219.428571 365.714286h365.714286v73.142857H219.428571zM219.428571 585.142857h512v73.142857H219.428571z" p-id="2209"></path></svg>