<?xml version="1.0" standalone="no"?><!DOCTYPE svg PUBLIC "-//W3C//DTD SVG 1.1//EN" "http://www.w3.org/Graphics/SVG/1.1/DTD/svg11.dtd"><svg t="1594452533669" class="icon" viewBox="0 0 1024 1024" version="1.1" xmlns="http://www.w3.org/2000/svg" p-id="2809" xmlns:xlink="http://www.w3.org/1999/xlink" width="200" height="200"><defs><style type="text/css"></style></defs><path d="M675.762925 0h150.649118a4.514409 4.514409 0 0 1 4.492387 4.492387v303.775656a4.492387 4.492387 0 0 1-4.492387 4.492387H675.762925a4.492387 4.492387 0 0 1-4.492387-4.492387V4.492387A4.514409 4.514409 0 0 1 675.762925 0zM519.388215 702.089634h150.649118c2.477419 0 4.492387 2.014968 4.492387 4.492388v303.775655a4.514409 4.514409 0 0 1-4.492387 4.492388H519.388215a4.514409 4.514409 0 0 1-4.492387-4.492388V706.582022c0-2.477419 2.014968-4.492387 4.492387-4.492388zM60.294882 804.698839h429.881806a4.514409 4.514409 0 0 1 4.492387 4.492387v98.535226a4.514409 4.514409 0 0 1-4.492387 4.492387H60.294882a4.514409 4.514409 0 0 1-4.492387-4.492387v-98.535226a4.514409 4.514409 0 0 1 4.492387-4.492387z m638.953978 0h277.316817a4.514409 4.514409 0 0 1 4.492388 4.492387v98.535226a4.514409 4.514409 0 0 1-4.492388 4.492387H699.24886a4.514409 4.514409 0 0 1-4.492387-4.492387v-98.535226a4.514409 4.514409 0 0 1 4.492387-4.492387zM325.257634 356.737376H174.608516a4.514409 4.514409 0 0 0-4.492387 4.492387v303.775656c0 2.477419 2.014968 4.492387 4.492387 4.492387H325.257634a4.492387 4.492387 0 0 0 4.492388-4.492387V361.240774a4.503398 4.503398 0 0 0-4.492388-4.503398z m651.297033 102.631226H354.469161a4.514409 4.514409 0 0 0-4.492387 4.492387v98.524215c0 2.477419 2.014968 4.492387 4.492387 4.492387h622.085506a4.514409 4.514409 0 0 0 4.492387-4.492387v-98.524215a4.492387 4.492387 0 0 0-4.492387-4.492387z m-831.157678 0H61.098667a4.514409 4.514409 0 0 0-4.492387 4.492387v98.524215c0 2.477419 2.014968 4.492387 4.492387 4.492387h84.298322a4.514409 4.514409 0 0 0 4.492387-4.492387v-98.524215a4.492387 4.492387 0 0 0-4.492387-4.492387zM60.294882 102.631226H646.551398a4.514409 4.514409 0 0 1 4.503398 4.492387v98.524215a4.514409 4.514409 0 0 1-4.503398 4.492387H60.294882a4.514409 4.514409 0 0 1-4.492387-4.492387V107.123613a4.514409 4.514409 0 0 1 4.492387-4.492387z m795.328688 0h120.942107c2.477419 0 4.492387 2.014968 4.492388 4.492387v98.524215a4.492387 4.492387 0 0 1-4.492388 4.492387H855.62357a4.514409 4.514409 0 0 1-4.492387-4.492387V107.123613c0-2.477419 2.014968-4.492387 4.492387-4.492387z" p-id="2810"></path></svg>