<?xml version="1.0" standalone="no"?><!DOCTYPE svg PUBLIC "-//W3C//DTD SVG 1.1//EN" "http://www.w3.org/Graphics/SVG/1.1/DTD/svg11.dtd"><svg t="1594102468436" class="icon" viewBox="0 0 1024 1024" version="1.1" xmlns="http://www.w3.org/2000/svg" p-id="2071" width="16" height="16" xmlns:xlink="http://www.w3.org/1999/xlink"><defs><style type="text/css"></style></defs><path d="M862.576996 871.940042H221.080444c-48.298991 0-87.695413-39.396423-87.695414-87.695413V180.097931c0-15.451584 12.58639-28.037973 28.037974-28.037973 15.451584 0 28.037973 12.58639 28.037973 28.037973v604.146698c0 17.498151 14.223643 31.619466 31.619467 31.619466h641.496552c15.451584 0 28.037973 12.58639 28.037974 28.037974 0 15.451584-12.58639 28.037973-28.037974 28.037973z" p-id="2072"></path><path d="M562.24323 600.462876c-7.162986 0-14.325972-2.762866-19.851704-8.18627L427.681423 477.464175 320.441291 584.704307c-10.949136 10.949136-28.651944 10.949136-39.601079 0s-10.949136-28.651944 0-39.601079l127.091836-127.091836c10.949136-10.949136 28.651944-10.949136 39.601079 0l114.710103 114.710103L811.515139 283.449585c10.949136-10.949136 28.651944-10.949136 39.60108 0s10.949136 28.651944 0 39.60108l-269.123614 269.123613c-5.423404 5.525732-12.58639 8.288598-19.749375 8.288598z" p-id="2073"></path></svg>