<?xml version="1.0" standalone="no"?><!DOCTYPE svg PUBLIC "-//W3C//DTD SVG 1.1//EN" "http://www.w3.org/Graphics/SVG/1.1/DTD/svg11.dtd"><svg t="1594115482951" class="icon" viewBox="0 0 1024 1024" version="1.1" xmlns="http://www.w3.org/2000/svg" p-id="3446" xmlns:xlink="http://www.w3.org/1999/xlink" width="16" height="16"><defs><style type="text/css"></style></defs><path d="M653.584384 243.298304H145.242112c-14.49984 0-21.74976-7.24992-21.74976-21.78048s7.24992-21.78048 21.74976-21.78048h508.342272c14.49984 0 21.8112 7.24992 21.8112 21.78048s-7.31136 21.78048-21.8112 21.78048z m0 181.551104H145.242112c-14.49984 0-21.74976-7.24992-21.74976-21.78048s7.24992-21.78048 21.74976-21.78048h508.342272c14.49984 0 21.8112 7.24992 21.8112 21.78048s-7.31136 21.78048-21.8112 21.78048z m-217.860096 181.581824H145.242112c-14.49984 0-21.74976-7.31136-21.74976-21.8112 0-14.497792 7.24992-21.809152 21.74976-21.809152h290.482176c14.56128 0 21.8112 7.31136 21.8112 21.809152 0 14.49984-7.24992 21.8112-21.8112 21.8112z m0 181.553152H145.242112c-14.49984 0-21.74976-7.31136-21.74976-21.8112s7.24992-21.8112 21.74976-21.8112h290.482176c14.56128 0 21.8112 7.31136 21.8112 21.8112s-7.24992 21.8112-21.8112 21.8112z m341.291008-137.992192c-57.995264 0-108.931072-50.87232-108.931072-108.931072 0-58.120192 50.935808-108.929024 108.931072-108.929024 58.120192 0 108.929024 50.81088 108.929024 108.929024 0.002048 58.058752-50.808832 108.931072-108.929024 108.931072z m0-174.301184c-36.31104 0-65.308672 29.06112-65.308672 65.370112 0 36.31104 28.995584 65.37216 65.308672 65.37216 36.308992 0 65.431552-29.059072 65.431552-65.37216 0.002048-36.31104-29.12256-65.370112-65.431552-65.370112z m138.05568 370.35008c36.308992 0 65.308672 29.06112 65.308672 65.370112 0 36.31104-28.997632 65.37216-65.308672 65.37216H624.5888c-36.31104 0-65.435648-29.059072-65.435648-65.37216 0-36.308992 29.124608-65.370112 65.435648-65.370112h290.482176m0-43.556864H624.5888c-58.12224 0-108.931072 50.808832-108.931072 108.929024 0 58.124288 43.495424 108.931072 108.931072 108.931072h290.482176c58.12224 0 108.929024-50.808832 108.929024-108.931072s-50.808832-108.929024-108.929024-108.929024z" p-id="3447"></path><path d="M647.028736 825.995264l73.377792-220.571648 41.353216 13.867008-73.375744 220.44672-41.355264-13.74208z m145.242112-206.702592l41.353216-13.74208 73.504768 220.44672-41.355264 13.805568-73.50272-220.510208z" p-id="3448"></path><path d="M464.785408 1020.34432H167.053312C72.620032 1020.34432 0 954.97216 0 875.104256V148.897792C0 69.02784 72.620032 3.657728 167.053312 3.657728h580.962304c94.431232 0 167.053312 65.370112 167.053312 145.240064v232.392704c0 14.53056-7.313408 21.78048-21.8112 21.78048s-21.809152-7.24992-21.809152-21.78048V148.897792c0-58.089472-58.124288-101.681152-123.43296-101.681152H167.053312c-65.370112 0-123.492352 43.59168-123.492352 101.681152v726.206464c0 58.120192 58.12224 101.679104 123.492352 101.679104h297.732096c14.497792 0 21.8112 7.24992 21.8112 21.747712 0 14.565376-7.313408 21.813248-21.8112 21.813248z" p-id="3449"></path></svg>