<?xml version="1.0" standalone="no"?><!DOCTYPE svg PUBLIC "-//W3C//DTD SVG 1.1//EN" "http://www.w3.org/Graphics/SVG/1.1/DTD/svg11.dtd"><svg t="1593323995053" class="icon" viewBox="0 0 1024 1024" version="1.1" xmlns="http://www.w3.org/2000/svg" p-id="11424" xmlns:xlink="http://www.w3.org/1999/xlink" width="200" height="200"><defs><style type="text/css"></style></defs><path d="M776.142619 774.24666l102.914599-102.914599a0.649746 0.649746 0 0 1 0.918741 0l54.621564 54.622863a0.649746 0.649746 0 0 1 0 0.918741l-102.9133 102.914599 110.621889 110.623188a0.649746 0.649746 0 0 1 0 0.918741l-50.767269 50.767269a0.649746 0.649746 0 0 1-0.918741 0l-110.623188-110.621888-102.914599 102.913299a0.649746 0.649746 0 0 1-0.918741 0l-54.622863-54.621563a0.649746 0.649746 0 0 1 0-0.918741l102.914599-102.914599-110.623188-110.623188a0.649746 0.649746 0 0 1 0-0.918741l50.768568-50.768569a0.649746 0.649746 0 0 1 0.918741 0l110.623188 110.623188z m-176.484061-258.515817c-1.465827 39.579939 14.49064 77.839594 43.733117 104.866436a278.42664 278.42664 0 0 0-58.591513 65.89466c-48.35801-43.678538-75.21202-105.971005-73.613644-170.761096 0-91.032041 49.094822-141.159959 84.925726-180.42932 33.877766-37.038132 54.325279-59.498558 54.325279-114.237076 2.267614-36.882193-13.891574-72.518173-43.23801-95.346356-31.203411-23.948345-78.632284-37.186274-134.051736-37.186274-47.405482-2.193543-94.254782 10.850761-133.55663 37.186274-29.345137 22.828183-45.505624 58.464162-43.23671 95.346356 0 54.292792 20.235695 76.306193 53.752203 112.898599 36.055716 39.26936 85.497503 89.39598 85.497502 181.767797 0 143.243046-111.622497 236.358173-266.197117 238.737543v34.806903H541.563452l-0.705625 88.206945H81.055838V723.827655c0-37.485157 19.170112-57.416772 56.126375-57.416772 22.265503 0 27.133401-0.148142 27.133401-0.148142 101.030335 0 182.93734-49.682193 182.93734-150.531898 0-124.946193-139.251005-129.111066-139.251005-294.666396C208.001949 74.846863 326.685888 0.324873 473.207553 0.324873h0.510701c146.461888 0 265.205604 74.52199 265.205604 220.739574 0 165.55533-139.266599 171.653848-139.266599 294.666396z m-6.927594 507.944284H81.055838V950.57868h465.036345c7.916508 27.211371 23.952244 52.343553 46.638781 73.096447z" p-id="11425"></path></svg>