<?xml version="1.0" standalone="no"?><!DOCTYPE svg PUBLIC "-//W3C//DTD SVG 1.1//EN" "http://www.w3.org/Graphics/SVG/1.1/DTD/svg11.dtd"><svg t="1593322424432" class="icon" viewBox="0 0 1024 1024" version="1.1" xmlns="http://www.w3.org/2000/svg" p-id="9646" xmlns:xlink="http://www.w3.org/1999/xlink" width="200" height="200"><defs><style type="text/css"></style></defs><path d="M733.090909 703.138909l54.272-55.412364a29.090909 29.090909 0 1 1 41.565091 40.704L773.818182 744.727273l55.109818 56.32a29.090909 29.090909 0 1 1-41.565091 40.680727L733.090909 786.315636l-54.272 55.412364a29.090909 29.090909 0 1 1-41.565091-40.704L692.363636 744.727273l-55.109818-56.32a29.090909 29.090909 0 1 1 41.565091-40.680728l54.272 55.412364zM438.272 872.727273a34.909091 34.909091 0 0 1 0 69.818182H209.454545A151.272727 151.272727 0 0 1 58.181818 791.272727V162.909091A151.272727 151.272727 0 0 1 209.454545 11.636364h488.727273A151.272727 151.272727 0 0 1 849.454545 162.909091v265.960727a34.909091 34.909091 0 0 1-69.818181 0V162.909091A81.454545 81.454545 0 0 0 698.181818 81.454545H209.454545A81.454545 81.454545 0 0 0 128 162.909091v628.363636A81.454545 81.454545 0 0 0 209.454545 872.727273h228.817455zM256 290.862545a34.909091 34.909091 0 0 1 0-69.818181h372.363636a34.909091 34.909091 0 0 1 0 69.818181H256z m0 186.181819a34.909091 34.909091 0 0 1 0-69.818182h372.363636a34.909091 34.909091 0 1 1 0 69.818182H256z m0 186.135272a34.909091 34.909091 0 1 1 0-69.818181h139.636364a34.909091 34.909091 0 0 1 0 69.818181h-139.636364z m465.454545 330.682182c-137.588364 0-249.134545-111.546182-249.134545-249.134545S583.866182 495.592727 721.454545 495.592727 970.589091 607.138909 970.589091 744.727273 859.042909 993.861818 721.454545 993.861818z m0-58.181818a190.952727 190.952727 0 1 0 0-381.905455 190.952727 190.952727 0 0 0 0 381.905455z" p-id="9647"></path></svg>