<?xml version="1.0" standalone="no"?><!DOCTYPE svg PUBLIC "-//W3C//DTD SVG 1.1//EN" "http://www.w3.org/Graphics/SVG/1.1/DTD/svg11.dtd"><svg t="1590984270475" class="icon" viewBox="0 0 1024 1024" version="1.1" xmlns="http://www.w3.org/2000/svg" p-id="5968" xmlns:xlink="http://www.w3.org/1999/xlink" width="200" height="200"><defs><style type="text/css"></style></defs><path d="M930.496 96.256v410.304a445.44 445.44 0 0 1-241.92 396.352l-174.08 89.344-174.144-89.344a445.44 445.44 0 0 1-241.92-396.352v-410.24h832zM843.52 182.848H185.408v323.712a358.848 358.848 0 0 0 194.752 319.36l134.336 68.928 134.336-68.928a358.848 358.848 0 0 0 194.688-319.36V182.848zM441.6 296l73.6 130.56 73.728-130.56h99.776l-73.728 130.56 68.416 0.064V513.28H558.4v37.12h124.992v86.592H558.4v74.944H471.424V636.928H347.328V550.336h124.16v-37.12h-124.16V426.624h68.16l-73.472-130.56H441.6z" p-id="5969"></path></svg>