<?xml version="1.0" standalone="no"?><!DOCTYPE svg PUBLIC "-//W3C//DTD SVG 1.1//EN" "http://www.w3.org/Graphics/SVG/1.1/DTD/svg11.dtd"><svg t="1593315821460" class="icon" viewBox="0 0 1024 1024" version="1.1" xmlns="http://www.w3.org/2000/svg" p-id="4245" xmlns:xlink="http://www.w3.org/1999/xlink" width="200" height="200"><defs><style type="text/css"></style></defs><path d="M721.92 181.76 302.08 181.76 302.08 81.92c0-38.4 30.72-69.12 69.12-69.12l279.04 0c38.4 0 69.12 30.72 69.12 69.12L719.36 181.76zM353.28 130.56l317.44 0L670.72 81.92c0-10.24-7.68-17.92-17.92-17.92L371.2 64c-10.24 0-17.92 7.68-17.92 17.92L353.28 130.56z" p-id="4246"></path><path d="M305.852621 821.76c-15.36 0-25.6-10.24-25.6-25.6L280.252621 481.28c0-15.36 10.24-25.6 25.6-25.6s25.6 10.24 25.6 25.6L331.452621 796.16C331.452621 808.96 321.212621 821.76 305.852621 821.76z" p-id="4247"></path><path d="M523.452621 821.76c-15.36 0-25.6-10.24-25.6-25.6L497.852621 481.28c0-15.36 10.24-25.6 25.6-25.6 15.36 0 25.6 10.24 25.6 25.6L549.052621 796.16C549.052621 808.96 538.812621 821.76 523.452621 821.76z" p-id="4248"></path><path d="M718.012621 821.76c-15.36 0-25.6-10.24-25.6-25.6L692.412621 481.28c0-15.36 10.24-25.6 25.6-25.6 15.36 0 25.6 10.24 25.6 25.6L743.612621 796.16C743.612621 808.96 733.372621 821.76 718.012621 821.76z" p-id="4249"></path><path d="M965.12 197.12 58.88 197.12c-15.36 0-25.6-10.24-25.6-25.6s10.24-25.6 25.6-25.6l903.68 0c15.36 0 25.6 10.24 25.6 25.6S977.92 197.12 965.12 197.12z" p-id="4250"></path><path d="M737.28 1013.76 286.72 1013.76c-125.44 0-189.44-69.12-189.44-204.8L97.28 317.44c0-15.36 10.24-25.6 25.6-25.6l778.24 0c15.36 0 25.6 10.24 25.6 25.6l0 491.52C926.72 944.64 862.72 1013.76 737.28 1013.76zM148.48 343.04l0 465.92c0 107.52 40.96 153.6 138.24 153.6l450.56 0c97.28 0 138.24-46.08 138.24-153.6L875.52 343.04 148.48 343.04z" p-id="4251"></path></svg>