<?xml version="1.0" standalone="no"?><!DOCTYPE svg PUBLIC "-//W3C//DTD SVG 1.1//EN" "http://www.w3.org/Graphics/SVG/1.1/DTD/svg11.dtd"><svg t="1593323791706" class="icon" viewBox="0 0 1024 1024" version="1.1" xmlns="http://www.w3.org/2000/svg" p-id="8514" xmlns:xlink="http://www.w3.org/1999/xlink" width="200" height="200"><defs><style type="text/css"></style></defs><path d="M631.466667 995.555556c-17.066667 0-28.444444-11.377778-28.444445-28.444445s11.377778-28.444444 28.444445-28.444444h56.888889s11.377778 0 45.511111-28.444445c22.755556-17.066667 51.2-45.511111 79.644444-68.266666 28.444444-28.444444 51.2-56.888889 68.266667-79.644445 22.755556-34.133333 28.444444-45.511111 28.444444-45.511111V290.133333c0-91.022222-73.955556-159.288889-159.288889-159.288889H273.066667C182.044444 130.844444 113.777778 204.8 113.777778 290.133333v494.933334c0 91.022222 130.844444 159.288889 216.177778 159.288889H455.111111c17.066667 0 28.444444 11.377778 28.444445 28.444444s-11.377778 28.444444-28.444445 28.444444H329.955556c-119.466667 0-273.066667-96.711111-273.066667-216.177777V290.133333C56.888889 170.666667 153.6 73.955556 273.066667 73.955556h477.866666C870.4 73.955556 967.111111 170.666667 967.111111 290.133333v426.666667c0 11.377778-5.688889 34.133333-39.822222 73.955556-17.066667 28.444444-45.511111 56.888889-79.644445 85.333333-28.444444 28.444444-62.577778 56.888889-85.333333 79.644444-45.511111 34.133333-68.266667 39.822222-79.644444 39.822223h-51.2z m-28.444445-34.133334v-136.533333c0-108.088889 85.333333-193.422222 193.422222-193.422222h119.466667c17.066667 0 28.444444 11.377778 28.444445 28.444444s-11.377778 28.444444-28.444445 28.444445H796.444444c-73.955556 0-136.533333 62.577778-136.533333 136.533333v136.533333c0 17.066667-11.377778 28.444444-28.444444 28.444445s-28.444444-11.377778-28.444445-28.444445zM256 318.577778h512c17.066667 0 28.444444 11.377778 28.444444 28.444444s-11.377778 28.444444-28.444444 28.444445h-512c-17.066667 0-28.444444-11.377778-28.444444-28.444445s11.377778-28.444444 28.444444-28.444444z m0 170.666666h512c17.066667 0 28.444444 11.377778 28.444444 28.444445s-11.377778 28.444444-28.444444 28.444444h-512c-17.066667 0-28.444444-11.377778-28.444444-28.444444s11.377778-28.444444 28.444444-28.444445z m0 170.666667h227.555556c17.066667 0 28.444444 11.377778 28.444444 28.444445s-11.377778 28.444444-28.444444 28.444444h-227.555556c-17.066667 0-28.444444-11.377778-28.444444-28.444444s11.377778-28.444444 28.444444-28.444445z" p-id="8515"></path></svg>