<?xml version="1.0" standalone="no"?><!DOCTYPE svg PUBLIC "-//W3C//DTD SVG 1.1//EN" "http://www.w3.org/Graphics/SVG/1.1/DTD/svg11.dtd"><svg t="1594192069304" class="icon" viewBox="0 0 1024 1024" version="1.1" xmlns="http://www.w3.org/2000/svg" p-id="2794" xmlns:xlink="http://www.w3.org/1999/xlink" width="16" height="16"><defs><style type="text/css"></style></defs><path d="M845.76 496.384a27.52 27.52 0 0 1 43.904 32.96l-85.184 113.536h63.232a27.392 27.392 0 1 1 0 54.848v0.128h-91.136v51.904h91.072a27.392 27.392 0 1 1 0 54.848h-91.136v64a27.392 27.392 0 1 1-54.848 0V804.48H630.528a27.392 27.392 0 1 1 0-54.848h91.136v-51.968H630.528a27.392 27.392 0 1 1 0-54.848h63.296L608.576 529.344a27.52 27.52 0 0 1 43.904-32.96l96.64 128.832zM677.632 128c30.08 0 54.656 24.576 54.656 54.848v246.848a27.392 27.392 0 1 1-54.656 0V210.304a27.392 27.392 0 0 0-27.392-27.456H210.048a27.392 27.392 0 0 0-27.392 27.456v548.544c0 15.168 12.288 27.456 27.392 27.456h329.6a27.392 27.392 0 1 1 0 54.848H182.72A54.848 54.848 0 0 1 128 786.304V182.848C128 152.576 152.512 128 182.656 128zM430.848 594.304a27.392 27.392 0 0 1 0 54.848H266.496a27.392 27.392 0 0 1 0-54.848z m108.608-164.608a27.392 27.392 0 0 1 0 54.848H266.496a27.392 27.392 0 0 1 0-54.848z m55.68-164.544A27.392 27.392 0 0 1 595.2 320H266.496a27.392 27.392 0 0 1 0-54.848z" p-id="2795"></path></svg>