<?xml version="1.0" standalone="no"?><!DOCTYPE svg PUBLIC "-//W3C//DTD SVG 1.1//EN" "http://www.w3.org/Graphics/SVG/1.1/DTD/svg11.dtd"><svg t="1593333893358" class="icon" viewBox="0 0 1024 1024" version="1.1" xmlns="http://www.w3.org/2000/svg" p-id="2369" xmlns:xlink="http://www.w3.org/1999/xlink" width="200" height="200"><defs><style type="text/css"></style></defs><path d="M897.56 255.96H445.4l-32.8-98.82c-5.96-17.04-22.15-28.96-40.46-28.96l-198.82-0.2c-18.31 0-34.5 11.93-40.46 28.96l-41.32 124.8-1.28 2.98c-0.43 1.7-0.85 3.41-1.28 5.11-0.43 2.56-0.85 5.54-0.85 8.52v553.73c0 23.43 19.17 42.59 42.59 42.59l766.84 0.2c23.43 0 42.59-19.17 42.59-42.6V298.56c0-23.43-19.16-42.6-42.59-42.6z m-693.57-42.79l137.48 0.2 14.05 42.59-165.59-0.2 14.06-42.59z m650.97 596.52l-681.65-0.2V340.95l241.41 0.2h440.23v468.54z" p-id="2370"></path></svg>