
<svg data-v-43e4aa88="" data-v-100d141f="" aria-hidden="true" class="svg-icon folder-icon"><use data-v-43e4aa88="" xlink:href="#icon-folder-open"><use>
<svg xmlns="http://www.w3.org/2000/svg" class="icon" viewBox="0 0 1152 1024" id="icon-folder-open">
    <path d="M1145.388 584.186L1000.54 832.496A127.994 127.994 0 0 1 889.978 896H90.05c-37.046 0-60.128-40.186-41.462-72.186l144.848-248.31A128 128 0 0 1 304 512h799.928c37.046 0 60.128 40.186 41.46 72.186zM304 448h656v-96c0-53.02-42.98-96-96-96H544l-128-128H96C42.98 128 0 170.98 0 224v556.092l138.154-236.836C172.428 484.5 235.978 448 304 448z" fill="#1b65b9" p-id="15058"></path>
</svg>
</use></svg>



