<?xml version="1.0" encoding="utf-8"?>
<!-- Generator: Adobe Illustrator 16.0.0, SVG Export Plug-In . SVG Version: 6.00 Build 0)  -->
<!DOCTYPE svg PUBLIC "-//W3C//DTD SVG 1.1//EN" "http://www.w3.org/Graphics/SVG/1.1/DTD/svg11.dtd">
<svg version="1.1" id="图层_1" xmlns="http://www.w3.org/2000/svg" xmlns:xlink="http://www.w3.org/1999/xlink" x="0px" y="0px"
	 width="1000px" height="1000px" viewBox="0 0 1000 1000" enable-background="new 0 0 1000 1000" xml:space="preserve">
<g>
	<defs>
		<rect id="SVGID_1_" x="167" y="167" width="665.88" height="666.96"/>
	</defs>
	<clipPath id="SVGID_2_">
		<use xlink:href="#SVGID_1_"  overflow="visible"/>
	</clipPath>
	<path clip-path="url(#SVGID_2_)" d="M729.208,168.195l103.273,139.266V834H166.88V307.512l103.27-139.317H729.208z
		 M760.185,379.754H239.173v382.004h521.012V379.754z M462.807,410.237l72.263-0.033l-0.02,118.968l119.006-0.091l0.034,72.263
		l-119.007,0.091l-0.015,119.04l-72.263,0.033l-0.021-119.005L343.82,601.63l-0.034-72.263l119.04-0.124L462.807,410.237z
		 M695.47,240.437H308.806l-49.512,67.075h486.402L695.47,240.437z M695.47,240.437"/>
</g>
</svg>
