<?xml version="1.0" standalone="no"?><!DOCTYPE svg PUBLIC "-//W3C//DTD SVG 1.1//EN" "http://www.w3.org/Graphics/SVG/1.1/DTD/svg11.dtd"><svg t="1590984217943" class="icon" viewBox="0 0 1024 1024" version="1.1" xmlns="http://www.w3.org/2000/svg" p-id="5712" xmlns:xlink="http://www.w3.org/1999/xlink" width="200" height="200"><defs><style type="text/css"></style></defs><path d="M606.272 637.248a169.664 169.664 0 0 1 240.896 0c57.344 57.6 65.28 146.176 23.808 212.288l54.272 53.824 1.792 2.496a9.6 9.6 0 0 1-1.792 10.944l-40.192 40.448-2.432 1.728a9.472 9.472 0 0 1-10.88-1.728l-54.4-53.888-10.496 6.208a169.6 169.6 0 0 1-200.576-30.08 171.904 171.904 0 0 1 0-242.24zM896 96v458.368h-86.08v-371.84h-595.84v658.944h263.168V928H128v-832h768z m-102.4 595.072a94.208 94.208 0 0 0-133.76 0 95.424 95.424 0 0 0 0 134.592 94.208 94.208 0 0 0 133.76 0 95.552 95.552 0 0 0 0-134.592zM503.36 500.544v86.528h-178.56V500.544h178.56z m181.76-214.784v86.528h-360.32V285.76h360.32z" p-id="5713"></path></svg>