<?xml version="1.0" encoding="utf-8"?>
<!-- Generator: Adobe Illustrator 16.0.0, SVG Export Plug-In . SVG Version: 6.00 Build 0)  -->
<!DOCTYPE svg PUBLIC "-//W3C//DTD SVG 1.1//EN" "http://www.w3.org/Graphics/SVG/1.1/DTD/svg11.dtd">
<svg version="1.1" id="图层_1" xmlns="http://www.w3.org/2000/svg" xmlns:xlink="http://www.w3.org/1999/xlink" x="0px" y="0px"
	 width="1000px" height="1000px" viewBox="0 0 1000 1000" enable-background="new 0 0 1000 1000" xml:space="preserve">
<g>
	<g>
		<defs>
			<rect id="SVGID_1_" x="141" y="142" width="716.88" height="717.84"/>
		</defs>
		<clipPath id="SVGID_2_">
			<use xlink:href="#SVGID_1_"  overflow="visible"/>
		</clipPath>
		<path clip-path="url(#SVGID_2_)" d="M841.653,141.978v295.425c0,53.348-11.262,104.958-31.949,152.063
			c29.594,28.414,47.977,68.402,47.977,112.691v4.301c-2.387,84.906-71.938,152.483-156.879,152.422
			c-48.637,0-92.105-22.117-120.832-56.832l-88.676,45.566l-146.687-75.469C219.392,707.521,140.771,578.36,140.88,437.454V141.978
			H841.653z M700.853,618.648c-29.867-0.026-57.484,15.884-72.445,41.739c-14.957,25.855-14.988,57.727-0.074,83.609
			c14.91,25.883,42.496,41.844,72.367,41.871c46.191,0.027,83.66-37.395,83.688-83.582c0.027-46.191-37.395-83.66-83.586-83.688
			L700.853,618.648z M768.438,215.091H214.095v222.363c-0.117,113.512,63.187,217.582,164.047,269.668l113.152,58.266l56.371-29.032
			c-12.168-54.375,5.441-111.125,46.254-149.062c40.813-37.938,98.699-51.359,152.043-35.254
			c14.871-36.375,22.523-75.293,22.527-114.586V215.091H768.438z M700.599,650.188c18.293-0.019,35.203,9.724,44.367,25.556
			c9.16,15.832,9.18,35.352,0.051,51.203c-9.133,15.848-26.023,25.625-44.316,25.641c-28.277,0.031-51.223-22.871-51.25-51.149
			C649.423,673.161,672.321,650.216,700.599,650.188L700.599,650.188z M578.845,284.11 M458.807,272.237l72.263-0.033l-0.02,118.968
			l119.006-0.091l0.034,72.263l-119.007,0.091l-0.015,119.04l-72.263,0.033l-0.021-119.005L339.82,463.63l-0.034-72.263
			l119.04-0.124L458.807,272.237z"/>
	</g>
</g>
</svg>
