<?xml version="1.0" standalone="no"?><!DOCTYPE svg PUBLIC "-//W3C//DTD SVG 1.1//EN" "http://www.w3.org/Graphics/SVG/1.1/DTD/svg11.dtd"><svg t="1593739994883" class="icon" viewBox="0 0 1024 1024" version="1.1" xmlns="http://www.w3.org/2000/svg" p-id="5130" xmlns:xlink="http://www.w3.org/1999/xlink" width="200" height="200"><defs><style type="text/css"></style></defs><path d="M704 320c-141.38 0-256 114.62-256 256s114.62 256 256 256 256-114.62 256-256-114.62-256-256-256z m41.14 264.94v155.63A27.51 27.51 0 0 1 717.71 768h-27.42a27.51 27.51 0 0 1-27.43-27.43V584.94a96 96 0 0 1 0-173.51V480a27.51 27.51 0 0 0 27.43 27.43h27.43A27.51 27.51 0 0 0 745.14 480v-68.57a96 96 0 0 1 0 173.51zM704 713.14a13.71 13.71 0 1 0 13.71 13.71A13.71 13.71 0 0 0 704 713.14z" p-id="5131"></path><path d="M768 192H128a64.19 64.19 0 0 0-64 64v512a64.19 64.19 0 0 0 64 64h444a289.07 289.07 0 0 1-82.6-64H128.11l-0.11-0.11V256.11l0.11-0.11h639.78l0.11 0.11v39A285.89 285.89 0 0 1 832 318v-62a64.19 64.19 0 0 0-64-64zM523 352H192v64h272.51A289.58 289.58 0 0 1 523 352zM192 480v64h225.78a286.28 286.28 0 0 1 14.63-64z" p-id="5132"></path></svg>