<?xml version="1.0" standalone="no"?><!DOCTYPE svg PUBLIC "-//W3C//DTD SVG 1.1//EN" "http://www.w3.org/Graphics/SVG/1.1/DTD/svg11.dtd"><svg t="1604734236300" class="icon" viewBox="0 0 1024 1024" version="1.1" xmlns="http://www.w3.org/2000/svg" p-id="10142" xmlns:xlink="http://www.w3.org/1999/xlink" width="200" height="200"><defs><style type="text/css"></style></defs><path d="M136.78592 668.59008c20.48 48.41984 49.78688 91.89376 87.1168 129.22368s80.80384 66.64192 129.22368 87.12192c50.14016 21.20704 103.38816 31.96416 158.26432 31.96416s108.11904-10.752 158.26432-31.96416a405.08928 405.08928 0 0 0 129.22368-87.12192c37.32992-37.32992 66.64192-80.80384 87.12192-129.22368 21.20704-50.14016 31.96416-103.38816 31.96416-158.26432s-10.752-108.11904-31.96416-158.26432a405.1456 405.1456 0 0 0-87.12192-129.22368c-37.32992-37.32992-80.80384-66.64192-129.22368-87.1168-50.14016-21.21216-103.38816-31.96416-158.26432-31.96416s-108.11904 10.752-158.26432 31.96416a405.15584 405.15584 0 0 0-129.22368 87.1168c-37.32992 37.32992-66.64192 80.80384-87.1168 129.22368-21.20704 50.14016-31.96416 103.38816-31.96416 158.26432s10.752 108.12416 31.96416 158.26432z m374.59968-506.5728c192.06144 0 348.30848 156.25216 348.30848 348.30848s-156.25216 348.30848-348.30848 348.30848-348.30848-156.25216-348.30848-348.30848S319.32928 162.01728 511.3856 162.01728z" fill="#1296db" p-id="10143"></path><path d="M531.98336 743.56736l178.49856-178.49856c11.33056-11.33056 11.33056-29.86496 0-41.19552-11.32544-11.32544-29.86496-11.32544-41.19552 0l-128.1536 128.15872V297.72288c0-16.02048-13.1072-29.12768-29.12768-29.12768s-29.12768 13.1072-29.12768 29.12768v355.54816L353.4848 523.87328c-11.33056-11.32544-29.86496-11.32544-41.19552 0-11.32544 11.33056-11.32544 29.86496 0 41.19552l178.49856 178.49856c11.33056 11.32544 29.86496 11.32544 41.19552 0z" fill="#1296db" p-id="10144"></path></svg>