<?xml version="1.0" standalone="no"?><!DOCTYPE svg PUBLIC "-//W3C//DTD SVG 1.1//EN" "http://www.w3.org/Graphics/SVG/1.1/DTD/svg11.dtd"><svg t="1604734240058" class="icon" viewBox="0 0 1024 1024" version="1.1" xmlns="http://www.w3.org/2000/svg" p-id="2332" xmlns:xlink="http://www.w3.org/1999/xlink" width="200" height="200"><defs><style type="text/css"></style></defs><path d="M885.991 352.066c-20.479-48.418-49.789-91.893-87.119-129.222s-80.806-66.641-129.223-87.12c-50.141-21.209-103.389-31.962-158.262-31.962s-108.119 10.753-158.262 31.962c-48.418 20.479-91.893 49.789-129.222 87.12-37.329 37.329-66.641 80.806-87.12 129.222-21.209 50.142-31.962 103.389-31.962 158.262s10.753 108.121 31.962 158.263c20.479 48.417 49.789 91.893 87.12 129.222 37.329 37.329 80.806 66.64 129.222 87.119 50.142 21.21 103.389 31.963 158.262 31.963s108.121-10.753 158.262-31.963c48.418-20.479 91.893-49.789 129.223-87.119 37.329-37.329 66.64-80.806 87.119-129.222 21.209-50.142 31.963-103.389 31.963-158.263 0-54.871-10.754-108.119-31.963-158.262zM511.387 858.641c-192.059 0-348.311-156.252-348.311-348.311s156.252-348.311 348.311-348.311 348.311 156.252 348.311 348.311-156.251 348.311-348.311 348.311z" fill="#1296db" p-id="2333"></path><path d="M490.791 277.091l-178.498 178.498c-11.328 11.328-11.328 29.863 0 41.193 11.327 11.327 29.863 11.327 41.193 0l128.156-128.157v354.309c0 16.020 13.107 29.127 29.127 29.127s29.127-13.107 29.127-29.127v-355.547l129.395 129.395c11.328 11.327 29.863 11.327 41.193 0 11.328-11.328 11.328-29.863 0-41.193l-178.498-178.499c-11.328-11.328-29.863-11.328-41.193 0z" fill="#1296db" p-id="2334"></path></svg>