<svg data-v-43e4aa88="" data-v-100d141f="" aria-hidden="true" class="svg-icon file-icon"><use data-v-43e4aa88="" xlink:href="#icon-building"><use>
<symbol class="icon" viewBox="0 0 1024 1024" xmlns="http://www.w3.org/2000/svg" id="icon-building">
    <path d="M512 336c-35.296 0-64-28.704-64-64s28.704-64 64-64 64 28.704 64 64-28.704 64-64 64z m0-96a32 32 0 1 0 0 64 32 32 0 0 0 0-64zM512 576c-35.296 0-64-28.704-64-64s28.704-64 64-64 64 28.704 64 64-28.704 64-64 64z m0-96a32 32 0 1 0 0 64 32 32 0 0 0 0-64z" fill="#1b65b9" p-id="6001"></path>
    <path d="M768 944a16 16 0 0 1-16-16v-158.08a16 16 0 0 1 32 0V928a16 16 0 0 1-16 16z" fill="#1b65b9" p-id="6002"></path>
    <path d="M806.4 507.52h-76.8a16 16 0 0 1 0-32h76.8a16 16 0 0 1 0 32zM806.4 608h-76.8a16 16 0 0 1 0-32h76.8a16 16 0 0 1 0 32z" fill="#1b65b9" p-id="6003"></path>
    <path d="M256 944a16 16 0 0 1-16-16v-158.08a16 16 0 0 1 32 0V928a16 16 0 0 1-16 16z" fill="#1b65b9" p-id="6004"></path>
    <path d="M294.4 507.52H217.6a16 16 0 0 1 0-32h76.8a16 16 0 0 1 0 32zM294.4 608H217.6a16 16 0 0 1 0-32h76.8a16 16 0 0 1 0 32z" fill="#1b65b9" p-id="6005"></path>
    <path d="M932.16 944h-832a16 16 0 0 1 0-32h832a16 16 0 0 1 0 32z" fill="#1b65b9" p-id="6006"></path>
    <path d="M672 944H352a16 16 0 0 1-16-16V96a16 16 0 0 1 16-16h320a16 16 0 0 1 16 16v832a16 16 0 0 1-16 16z m-304-32h288v-800h-288v800z" fill="#1b65b9" p-id="6007"></path>
    <path d="M864 944h-192a16 16 0 0 1-16-16V256a16 16 0 0 1 23.136-14.304l192 96A16 16 0 0 1 880 352v576a16 16 0 0 1-16 16z m-176-32h160V361.888l-160-80V912zM352 944H160a16 16 0 0 1-16-16V352a16 16 0 0 1 8.832-14.304l192-96A16.064 16.064 0 0 1 368 256v672a16 16 0 0 1-16 16z m-176-32h160V281.888l-160 80V912zM560 944h-96a16 16 0 0 1-16-16v-192a16 16 0 0 1 16-16h96a16 16 0 0 1 16 16v192a16 16 0 0 1-16 16z m-80-32h64v-160h-64v160z" fill="#1b65b9" p-id="6008"></path>
</symbol>
</use></svg>