<?xml version="1.0" standalone="no"?><!DOCTYPE svg PUBLIC "-//W3C//DTD SVG 1.1//EN" "http://www.w3.org/Graphics/SVG/1.1/DTD/svg11.dtd"><svg t="1589854407866" class="icon" viewBox="0 0 1171 1024" version="1.1" xmlns="http://www.w3.org/2000/svg" p-id="1177" xmlns:xlink="http://www.w3.org/1999/xlink" width="36.59375" height="32"><defs><style type="text/css"></style></defs><path d="M146.286 585.143h987.428q14.857 0 25.715 10.857t10.857 25.714v256H1024V731.43H146.286v146.285H0V182.857Q0 168 10.857 157.143t25.714-10.857h73.143q14.857 0 25.715 10.857t10.857 25.714v402.286z m329.143-182.857q0-60.572-42.858-103.429T329.143 256t-103.429 42.857-42.857 103.429 42.857 103.428 103.429 42.857 103.428-42.857 42.858-103.428z m694.857 146.285V512q0-90.857-64.286-155.143t-155.143-64.286H548.571q-14.857 0-25.714 10.858T512 329.143V548.57h658.286z" p-id="1178" fill="#49A1F9"></path></svg>