<?xml version="1.0" standalone="no"?><!DOCTYPE svg PUBLIC "-//W3C//DTD SVG 1.1//EN" "http://www.w3.org/Graphics/SVG/1.1/DTD/svg11.dtd"><svg t="1593590556914" class="icon" viewBox="0 0 1024 1024" version="1.1" xmlns="http://www.w3.org/2000/svg" p-id="714" width="200" height="200" xmlns:xlink="http://www.w3.org/1999/xlink"><defs><style type="text/css"></style></defs><path d="M80.064 106.56" p-id="715"></path><path d="M512 1024c-281.6 0-512-230.4-512-512s230.4-512 512-512 512 230.4 512 512S793.6 1024 512 1024zM512 57.6C262.4 57.6 57.6 262.4 57.6 512s204.8 454.4 454.4 454.4 454.4-204.8 454.4-454.4S761.6 57.6 512 57.6z" p-id="716"></path><path d="M749.12 741.76 749.12 741.76c-127.168 131.008-336.192 134.272-466.88 7.424S148.544 413.248 275.712 282.24s336.192-134.272 466.88-7.424l-38.336 39.552C595.264 208.64 421.12 211.392 315.136 320.512c-105.92 109.12-103.488 283.328 5.44 389.056 108.928 105.728 283.136 102.976 389.056-6.144L749.12 741.76 749.12 741.76zM749.12 741.76c-10.56 10.88-28.032 11.2-38.912 0.576-10.88-10.56-11.136-27.968-0.512-38.912 10.624-10.944 28.032-11.2 38.912-0.64C759.488 713.408 759.68 730.816 749.12 741.76L749.12 741.76zM841.792 409.472 627.52 393.408l191.808-197.632L841.792 409.472 841.792 409.472z" p-id="717"></path></svg>