<?xml version="1.0" standalone="no"?><!DOCTYPE svg PUBLIC "-//W3C//DTD SVG 1.1//EN" "http://www.w3.org/Graphics/SVG/1.1/DTD/svg11.dtd"><svg t="1594003994501" class="icon" viewBox="0 0 1024 1024" version="1.1" xmlns="http://www.w3.org/2000/svg" p-id="2092" xmlns:xlink="http://www.w3.org/1999/xlink" width="200" height="200"><defs><style type="text/css"></style></defs><path d="M960 1024H64c-35.2 0-64-28.8-64-64V64C0 28.8 28.8 0 64 0h688c19.2 0 38.4 9.6 51.2 25.6l208 265.6c9.6 9.6 12.8 25.6 12.8 38.4V960c0 35.2-28.8 64-64 64zM752 64H64v896h896V329.6L752 64z" p-id="2093"></path><path d="M672 256H224c-19.2 0-32-12.8-32-32s12.8-32 32-32h448c19.2 0 32 12.8 32 32s-12.8 32-32 32zM800 448H224c-19.2 0-32-12.8-32-32s12.8-32 32-32h576c19.2 0 32 12.8 32 32s-12.8 32-32 32zM832 1024H192v-256c0-35.2 28.8-64 64-64h512c35.2 0 64 28.8 64 64v256zM256 960h512v-192H256v192z" p-id="2094"></path></svg>