<?xml version="1.0" standalone="no"?><!DOCTYPE svg PUBLIC "-//W3C//DTD SVG 1.1//EN" "http://www.w3.org/Graphics/SVG/1.1/DTD/svg11.dtd"><svg t="1590984186778" class="icon" viewBox="0 0 1024 1024" version="1.1" xmlns="http://www.w3.org/2000/svg" p-id="5585" xmlns:xlink="http://www.w3.org/1999/xlink" width="200" height="200"><defs><style type="text/css"></style></defs><path d="M245.12 341.248a250.816 250.816 0 0 1 250.24-251.392c138.24 0 250.24 112.576 250.24 251.392a251.456 251.456 0 0 1-128 219.328 187.84 187.84 0 0 1-177.28 126.208H316.672V598.848h123.776c55.296 0 100.096-44.992 100.096-100.544v-6.272H183.616l-1.408 348.032h556.736c55.232 0 100.096-45.056 100.096-100.544l1.344-121.856h-139.712V529.728H928l-1.408 209.792a188.16 188.16 0 0 1-187.648 188.48H94.592L96 404.032h156.992a252.8 252.8 0 0 1-7.872-62.784z m100.032 62.784h282.88v31.68c18.88-26.688 30.016-59.264 30.016-94.464A163.008 163.008 0 0 0 495.36 177.856a163.008 163.008 0 0 0-162.688 163.392c0 22.208 4.48 43.52 12.48 62.784z" p-id="5586"></path></svg>