<?xml version="1.0" encoding="utf-8"?>
<!-- Generator: Adobe Illustrator 23.1.0, SVG Export Plug-In . SVG Version: 6.00 Build 0)  -->
<svg version="1.1" id="图层_1" xmlns="http://www.w3.org/2000/svg" xmlns:xlink="http://www.w3.org/1999/xlink" x="0px" y="0px"
	 viewBox="0 0 612 792" style="enable-background:new 0 0 612 792;" xml:space="preserve">
<style type="text/css">
	.st0{clip-path:url(#SVGID_2_);}
</style>
<g>
	<g>
		<defs>
			<rect id="SVGID_1_" x="18" y="38" width="574.8" height="717.84"/>
		</defs>
		<clipPath id="SVGID_2_">
			<use xlink:href="#SVGID_1_"  style="overflow:visible;"/>
		</clipPath>
		<path class="st0" d="M472.4,754.88H138c-66.16,0-120-53.84-120-120v-476.8c0-66.16,53.84-120,120-120h240c13.28,0,24,10.72,24,24
			v164h166.4c13.28,0,24,10.72,24,24v384.8C592.4,701.04,538.56,754.88,472.4,754.88L472.4,754.88z M138,86.08
			c-39.68,0-72,32.32-72,72v476.8c0,39.68,32.32,72,72,72h334.4c39.68,0,72-32.32,72-72v-360.8H378c-13.28,0-24-10.72-24-24v-164
			H138z M138,86.08"/>
		<path class="st0" d="M568.4,274.08c-6.08,0-12.16-2.32-16.88-6.96l-190.4-188c-9.44-9.28-9.52-24.48-0.24-33.92
			c9.28-9.44,24.48-9.52,33.92-0.24l190.4,188c9.44,9.28,9.52,24.48,0.24,33.92C580.8,271.68,574.56,274.08,568.4,274.08
			L568.4,274.08z M425.2,395.2h-240c-13.28,0-24-10.72-24-24s10.72-24,24-24h240c13.28,0,24,10.72,24,24S438.48,395.2,425.2,395.2
			L425.2,395.2z M425.2,492.48h-240c-13.28,0-24-10.72-24-24c0-13.28,10.72-24,24-24h240c13.28,0,24,10.72,24,24
			C449.2,481.76,438.48,492.48,425.2,492.48L425.2,492.48z M425.2,589.76h-240c-13.28,0-24-10.72-24-24c0-13.28,10.72-24,24-24h240
			c13.28,0,24,10.72,24,24C449.2,579.04,438.48,589.76,425.2,589.76L425.2,589.76z M425.2,589.76"/>
	</g>
</g>
</svg>
