<?xml version="1.0" standalone="no"?><!DOCTYPE svg PUBLIC "-//W3C//DTD SVG 1.1//EN" "http://www.w3.org/Graphics/SVG/1.1/DTD/svg11.dtd"><svg t="1593334262248" class="icon" viewBox="0 0 1024 1024" version="1.1" xmlns="http://www.w3.org/2000/svg" p-id="6495" xmlns:xlink="http://www.w3.org/1999/xlink" width="200" height="200"><defs><style type="text/css"></style></defs><path d="M268.8 597.333333h51.2c12.8 0 21.333333-8.533333 21.333333-21.333333s-8.533333-21.333333-21.333333-21.333333H268.8c-17.066667 0-25.6 0-34.133333 4.266666-8.533333 4.266667-12.8 8.533333-17.066667 17.066667-4.266667 8.533333-4.266667 12.8-4.266667 34.133333v102.4c0 17.066667 0 25.6 4.266667 34.133334 4.266667 8.533333 8.533333 12.8 17.066667 17.066666 8.533333 4.266667 12.8 4.266667 34.133333 4.266667h486.4c17.066667 0 25.6 0 34.133333-4.266667 8.533333-4.266667 12.8-8.533333 17.066667-17.066666 4.266667-8.533333 4.266667-12.8 4.266667-34.133334v-102.4c0-17.066667 0-25.6-4.266667-34.133333-4.266667-8.533333-8.533333-12.8-17.066667-17.066667-8.533333-4.266667-12.8-4.266667-34.133333-4.266666h-51.2c-12.8 0-21.333333 8.533333-21.333333 21.333333s8.533333 21.333333 21.333333 21.333333H768V725.333333H256V610.133333 597.333333h12.8z" p-id="6496"></path><path d="M533.333333 328.533333l85.333334 85.333334c8.533333 8.533333 21.333333 8.533333 29.866666 0 8.533333-8.533333 8.533333-21.333333 0-29.866667l-119.466666-119.466667c-8.533333-8.533333-21.333333-8.533333-29.866667 0L375.466667 384c-8.533333 8.533333-8.533333 21.333333 0 29.866667 8.533333 8.533333 21.333333 8.533333 29.866666 0l85.333334-85.333334v281.6c0 12.8 8.533333 21.333333 21.333333 21.333334s21.333333-8.533333 21.333333-21.333334V328.533333z" p-id="6497"></path></svg>